<svg width="820" height="200" viewBox="0 0 820 200" xmlns="http://www.w3.org/2000/svg">
  <rect width="820" height="200" fill="#050505"/>
  <g fill="#FFFFFF">
    <!-- S -->
    <path d="M80 20 L30 70 L110 70 L150 105 L80 140 L30 140 L80 180 L160 180 L200 140 L150 105 L80 20 Z"/>
    <!-- T -->
    <path d="M210 40 L260 40 L255 180 L230 180 L230 85 L190 90 Z"/>
    <!-- A -->
    <path d="M300 20 L260 180 L290 180 L315 95 L345 180 L375 180 L340 20 Z"/>
    <!-- C -->
    <path d="M410 35 L360 85 L360 135 L410 180 L470 180 L520 135 L520 120 L485 120 L450 150 L425 150 L395 120 L395 100 L425 70 L450 70 L480 95 L520 95 L520 85 L470 35 Z"/>
    <!-- C -->
    <path d="M560 35 L510 85 L510 135 L560 180 L620 180 L670 135 L670 120 L635 120 L600 150 L575 150 L545 120 L545 100 L575 70 L600 70 L630 95 L670 95 L670 85 L620 35 Z"/>
    <!-- O -->
    <path d="M700 45 L660 85 L660 140 L700 180 L770 180 L810 140 L810 85 L770 45 Z M725 75 L745 75 L780 105 L780 120 L745 150 L725 150 L690 120 L690 105 Z"/>
    <!-- A -->
    <path d="M735 20 L695 180 L725 180 L750 95 L780 180 L810 180 L775 20 Z"/>
  </g>
</svg>
