<svg width="780" height="220" viewBox="0 0 780 220" xmlns="http://www.w3.org/2000/svg" role="img" aria-labelledby="title">
  <title id="title">Staccoa logotype</title>
  <rect width="780" height="220" fill="#000"/>
  <g fill="#fff">
    <path d="M55 25L5 90h105l70 55-110 50H5l75 45h210l65-65-105-75 120-55L310 25z"/>
    <path d="M320 35l-55 25h65v160h40l12-185z"/>
    <path d="M405 15l-60 190h40l30-95 32 95h40L427 15z"/>
    <path d="M520 30l-60 55v70l60 55h90l60-55v-10h-80l-25 25h-40l-25-25V95l25-25h40l25 25h80v-10l-60-55z"/>
    <path d="M645 30l-60 55v70l60 55h90l60-55v-10h-80l-25 25h-40l-25-25V95l25-25h40l25 25h80v-10l-60-55z"/>
    <path d="M770 40l-55 50v80l55 50h105l55-50v-80l-55-50zm30 30h40l30 30v50l-30 30h-40l-30-30v-50z"/>
    <path d="M760 15l-50 190h36l24-75 28 75h36l-54-190z"/>
  </g>
</svg>
